<?xml version="1.0" standalone="no"?>
<!DOCTYPE svg PUBLIC "-//W3C//DTD SVG 20010904//EN"
 "http://www.w3.org/TR/2001/REC-SVG-20010904/DTD/svg10.dtd">
<svg version="1.0" xmlns="http://www.w3.org/2000/svg"
 width="512.000000pt" height="512.000000pt" viewBox="0 0 512.000000 512.000000"
 preserveAspectRatio="xMidYMid meet">

<g transform="translate(0.000000,512.000000) scale(0.100000,-0.100000)"
fill="#000000" stroke="none">
<path d="M2530 4907 c-49 -25 -50 -27 -50 -567 l0 -505 -178 -178 -177 -177
-745 0 c-578 0 -751 -3 -770 -13 -37 -18 -603 -910 -603 -949 0 -17 9 -38 22
-51 l22 -22 533 -3 534 -3 12 -28 c14 -34 58 -56 92 -46 13 4 319 302 681 663
l657 657 658 -657 c361 -361 667 -659 680 -663 34 -10 78 12 92 46 l12 28 533
3 c508 3 534 4 554 22 38 34 28 72 -54 202 -306 489 -504 790 -526 801 -18 10
-198 13 -769 13 l-745 0 -177 177 -178 178 0 142 0 142 375 3 c370 3 375 3
396 25 37 37 29 69 -50 186 l-71 107 71 107 c79 117 87 149 50 186 -21 22 -26
22 -395 25 l-374 3 -4 55 c-7 79 -54 118 -108 91z"/>
<path d="M2443 2985 c-107 -23 -190 -70 -274 -154 -224 -225 -224 -557 0 -782
225 -224 557 -224 782 0 54 54 85 96 108 144 107 226 67 463 -108 638 -141
140 -320 195 -508 154z m239 -164 c67 -23 100 -43 152 -90 80 -75 126 -181
126 -291 0 -220 -180 -400 -400 -400 -174 0 -323 108 -381 278 -35 100 -19
238 37 329 98 157 298 232 466 174z"/>
<path d="M2530 2747 c-37 -19 -50 -54 -50 -144 l0 -81 -95 -4 c-81 -3 -98 -6
-116 -25 -29 -29 -29 -77 0 -106 20 -21 30 -22 171 -22 202 0 195 -7 195 195
0 136 -2 151 -20 169 -28 27 -56 33 -85 18z"/>
<path d="M777 2190 c-83 -21 -146 -70 -185 -144 -27 -50 -27 -54 -30 -275 -3
-162 0 -231 9 -247 21 -41 53 -45 282 -42 287 4 262 -22 262 271 0 218 0 223
-26 277 -46 98 -122 153 -224 164 -27 3 -67 1 -88 -4z m121 -170 c35 -21 62
-72 62 -115 l0 -25 -120 0 -120 0 0 36 c0 46 26 89 64 108 42 21 75 20 114 -4z
m62 -340 l0 -40 -120 0 -120 0 0 40 0 40 120 0 120 0 0 -40z"/>
<path d="M1497 2189 c-92 -22 -167 -85 -197 -166 -18 -48 -20 -78 -20 -272 0
-201 2 -221 19 -242 19 -24 19 -24 256 -24 237 0 237 0 256 24 17 21 19 42 19
250 0 217 -1 228 -24 276 -55 116 -189 183 -309 154z m106 -163 c40 -16 64
-51 73 -105 l7 -41 -128 0 -127 0 7 42 c10 54 28 82 68 102 40 19 59 20 100 2z
m77 -346 l0 -40 -125 0 -125 0 0 40 0 40 125 0 125 0 0 -40z"/>
<path d="M3488 2186 c-97 -27 -169 -101 -195 -198 -16 -64 -18 -410 -2 -456 7
-20 21 -34 41 -41 41 -15 415 -14 456 0 48 17 54 53 50 289 -3 183 -6 210 -24
251 -57 123 -199 191 -326 155z m155 -184 c21 -21 31 -42 34 -76 l6 -46 -123
0 -123 0 6 46 c5 47 33 88 72 105 37 16 96 3 128 -29z m37 -322 l0 -40 -120 0
-120 0 0 40 0 40 120 0 120 0 0 -40z"/>
<path d="M4217 2190 c-83 -21 -146 -70 -185 -144 -27 -50 -27 -54 -30 -275 -3
-162 0 -231 9 -247 21 -41 53 -45 282 -42 287 4 262 -22 262 271 0 218 0 223
-26 277 -46 98 -122 153 -224 164 -27 3 -67 1 -88 -4z m121 -170 c35 -21 62
-72 62 -115 l0 -25 -120 0 -120 0 0 36 c0 46 26 89 64 108 42 21 75 20 114 -4z
m62 -340 l0 -40 -120 0 -120 0 0 40 0 40 120 0 120 0 0 -40z"/>
<path d="M2160 1620 c-70 -24 -123 -79 -144 -151 -14 -45 -16 -129 -16 -581
l0 -528 -975 -2 -974 -3 -22 -22 c-29 -29 -29 -77 0 -106 l22 -22 2509 0 2509
0 22 22 c29 29 29 77 0 106 l-22 22 -974 3 -975 2 0 528 c0 602 0 605 -74 678
-69 70 -96 74 -490 74 -308 -1 -346 -2 -396 -20z m775 -165 c21 -20 25 -34 25
-80 l0 -55 -400 0 -400 0 0 55 c0 46 4 60 25 80 l24 25 351 0 351 0 24 -25z"/>
<path d="M605 1228 c-43 -25 -44 -32 -45 -309 0 -253 1 -266 20 -287 11 -12
31 -24 43 -27 13 -4 118 -5 235 -3 205 3 212 4 234 26 23 22 23 25 23 292 0
267 0 270 -23 292 -22 22 -28 23 -245 25 -156 2 -228 -1 -242 -9z m355 -188
l0 -40 -120 0 -120 0 0 40 0 40 120 0 120 0 0 -40z m0 -240 l0 -40 -120 0
-120 0 0 40 0 40 120 0 120 0 0 -40z"/>
<path d="M1328 1229 c-43 -16 -48 -51 -48 -309 0 -264 5 -293 52 -309 41 -14
415 -14 456 0 47 16 52 45 52 309 0 264 -5 293 -52 309 -39 14 -423 13 -460 0z
m352 -189 l0 -40 -120 0 -120 0 0 40 0 40 120 0 120 0 0 -40z m0 -240 l0 -40
-120 0 -120 0 0 40 0 40 120 0 120 0 0 -40z"/>
<path d="M3325 1228 c-43 -25 -44 -32 -45 -309 0 -253 1 -266 20 -287 11 -12
31 -24 43 -27 13 -4 118 -5 235 -3 205 3 212 4 234 26 23 22 23 25 23 292 0
267 0 270 -23 292 -22 22 -28 23 -245 25 -156 2 -228 -1 -242 -9z m355 -188
l0 -40 -120 0 -120 0 0 40 0 40 120 0 120 0 0 -40z m0 -240 l0 -40 -120 0
-120 0 0 40 0 40 120 0 120 0 0 -40z"/>
<path d="M4048 1229 c-43 -16 -48 -51 -48 -309 0 -264 5 -293 52 -309 41 -14
415 -14 456 0 47 16 52 45 52 309 0 264 -5 293 -52 309 -39 14 -423 13 -460 0z
m352 -189 l0 -40 -120 0 -120 0 0 40 0 40 120 0 120 0 0 -40z m0 -240 l0 -40
-120 0 -120 0 0 40 0 40 120 0 120 0 0 -40z"/>
</g>
</svg>
