<svg width="642" height="448" viewBox="0 0 642 448" fill="none" xmlns="http://www.w3.org/2000/svg">
<g clip-path="url(#clip0_0_8)">
<path opacity="0.1" d="M385.967 57.2683C409.891 34.4645 440.62 20.118 473.463 16.4195C506.305 12.7209 539.455 19.8737 567.851 36.7855C509.555 57.655 445.233 58.4222 385.967 57.2683Z" fill="#70DDFF"/>
<path opacity="0.1" d="M48.0947 396.201L111.755 285.93C111.932 285.62 112.188 285.363 112.497 285.183C112.805 285.004 113.156 284.91 113.513 284.91C113.87 284.91 114.221 285.004 114.53 285.183C114.838 285.363 115.094 285.62 115.272 285.93L178.931 396.201C179.117 396.509 179.217 396.862 179.221 397.222C179.225 397.583 179.132 397.937 178.954 398.25C178.775 398.563 178.516 398.822 178.203 399.001C177.891 399.181 177.536 399.273 177.176 399.27H158.186C157.648 399.271 157.132 399.486 156.751 399.867C156.371 400.247 156.156 400.763 156.155 401.301V424.835C156.155 425.373 155.941 425.889 155.562 426.269C155.182 426.65 154.667 426.865 154.129 426.867H129.351C128.813 426.867 128.296 426.653 127.915 426.272C127.534 425.891 127.32 425.374 127.32 424.835V413.461C127.32 412.924 127.106 412.409 126.727 412.029C126.347 411.649 125.832 411.435 125.294 411.435H101.738C101.2 411.435 100.684 411.649 100.304 412.028C99.9228 412.408 99.708 412.923 99.7064 413.461V424.835C99.7064 425.374 99.4923 425.891 99.1114 426.272C98.7304 426.653 98.2136 426.867 97.6748 426.867H72.9032C72.3644 426.867 71.8476 426.653 71.4666 426.272C71.0856 425.891 70.8716 425.374 70.8716 424.835V401.277C70.8716 400.738 70.6576 400.221 70.2766 399.84C69.8956 399.459 69.3788 399.245 68.84 399.245H49.8501C49.4943 399.244 49.145 399.15 48.8371 398.971C48.5293 398.793 48.2737 398.537 48.0959 398.228C47.9182 397.92 47.8246 397.571 47.8243 397.215C47.8241 396.859 47.9174 396.509 48.0947 396.201ZM136.87 408.403C137.057 408.596 137.28 408.749 137.527 408.854C137.773 408.96 138.038 409.015 138.306 409.017H147.224C147.763 409.017 148.28 408.803 148.661 408.422C149.042 408.041 149.256 407.524 149.256 406.985C149.256 406.447 149.042 405.93 148.661 405.549C148.28 405.168 147.763 404.954 147.224 404.954H138.288C137.886 404.954 137.493 405.073 137.159 405.296C136.825 405.52 136.565 405.837 136.411 406.208C136.258 406.579 136.217 406.988 136.296 407.382C136.374 407.776 136.568 408.138 136.852 408.422L136.87 408.403ZM78.3903 408.403C78.5771 408.596 78.8003 408.749 79.0468 408.854C79.2934 408.96 79.5584 409.015 79.8265 409.017H88.7384C89.2772 409.017 89.7939 408.803 90.1749 408.422C90.5559 408.041 90.77 407.524 90.77 406.985C90.77 406.447 90.5559 405.93 90.1749 405.549C89.7939 405.168 89.2772 404.954 88.7384 404.954H79.7897C79.3879 404.954 78.9953 405.073 78.6613 405.296C78.3273 405.52 78.067 405.837 77.9133 406.208C77.7596 406.579 77.7194 406.988 77.7977 407.382C77.8761 407.776 78.0694 408.138 78.3534 408.422L78.3903 408.403Z" fill="#70DDFF"/>
<path opacity="0.1" d="M441.574 397.171L505.234 286.9C505.413 286.592 505.669 286.336 505.978 286.157C506.286 285.979 506.637 285.886 506.993 285.886C507.349 285.886 507.699 285.979 508.008 286.157C508.316 286.336 508.573 286.592 508.751 286.9L563.739 382.145C556.869 390.802 549.161 398.761 540.728 405.905H531.767C531.229 405.905 530.712 406.119 530.331 406.5C529.95 406.881 529.736 407.398 529.736 407.937C529.736 408.476 529.95 408.992 530.331 409.373C530.712 409.754 531.229 409.968 531.767 409.968H535.548C530.918 413.451 525.988 416.518 520.818 419.133V414.437C520.818 413.898 520.604 413.381 520.223 413C519.842 412.619 519.325 412.405 518.786 412.405H495.23C494.692 412.407 494.177 412.622 493.797 413.003C493.418 413.383 493.205 413.899 493.205 414.437V425.805C493.206 426.1 493.141 426.391 493.014 426.658C492.852 427.009 492.592 427.307 492.266 427.516C491.939 427.725 491.56 427.836 491.173 427.836H466.395C466.081 427.838 465.771 427.764 465.49 427.622C465.209 427.48 464.966 427.274 464.781 427.02C464.508 426.67 464.363 426.237 464.37 425.792V402.253C464.37 401.714 464.156 401.197 463.775 400.816C463.394 400.435 462.877 400.221 462.338 400.221H443.348C442.99 400.224 442.637 400.132 442.326 399.955C442.015 399.777 441.756 399.521 441.576 399.211C441.396 398.901 441.301 398.549 441.301 398.191C441.3 397.833 441.395 397.481 441.574 397.171ZM483.648 406.5C483.461 406.308 483.238 406.155 482.992 406.05C482.745 405.944 482.48 405.889 482.212 405.887H473.276C472.737 405.887 472.22 406.101 471.839 406.482C471.458 406.863 471.244 407.38 471.244 407.918C471.244 408.457 471.458 408.974 471.839 409.355C472.22 409.736 472.737 409.95 473.276 409.95H482.218C482.62 409.95 483.012 409.831 483.346 409.607C483.68 409.384 483.941 409.067 484.094 408.696C484.248 408.325 484.288 407.916 484.21 407.522C484.132 407.128 483.938 406.766 483.654 406.482L483.648 406.5ZM523.635 365.694C524.174 365.694 524.691 365.48 525.072 365.099C525.453 364.718 525.667 364.202 525.667 363.663V348.232C525.667 347.693 525.453 347.176 525.072 346.795C524.691 346.414 524.174 346.2 523.635 346.2H490.338C489.8 346.202 489.285 346.416 488.906 346.797C488.526 347.178 488.313 347.694 488.313 348.232V363.663C488.313 364.201 488.526 364.716 488.906 365.097C489.285 365.478 489.8 365.693 490.338 365.694H523.635Z" fill="#70DDFF"/>
<path opacity="0.2" d="M189.942 199.082H268.719V182.043C268.719 180.962 269.149 179.926 269.913 179.161C270.677 178.397 271.714 177.967 272.795 177.967H295.928V159.817C295.928 159.137 296.198 158.484 296.679 158.003C297.16 157.522 297.813 157.251 298.493 157.251H328.292C328.972 157.251 329.625 157.522 330.106 158.003C330.587 158.484 330.857 159.137 330.857 159.817V177.961H358.053C359.134 177.961 360.171 178.391 360.935 179.155C361.699 179.919 362.129 180.956 362.129 182.037V199.076H437.247C437.466 199.078 437.675 199.166 437.829 199.321C437.983 199.476 438.07 199.686 438.07 199.905V426.112C438.07 426.33 437.983 426.54 437.829 426.695C437.675 426.851 437.466 426.939 437.247 426.94H387.324C387.104 426.94 386.893 426.853 386.738 426.698C386.582 426.542 386.495 426.331 386.495 426.112V395.679C386.493 395.46 386.406 395.25 386.251 395.095C386.096 394.94 385.886 394.852 385.666 394.85H364.577C364.358 394.852 364.148 394.94 363.993 395.095C363.838 395.25 363.75 395.46 363.749 395.679V426.112C363.749 426.33 363.662 426.54 363.508 426.695C363.354 426.851 363.145 426.939 362.926 426.94H264.263C264.044 426.939 263.834 426.851 263.679 426.696C263.524 426.541 263.436 426.331 263.435 426.112V395.679C263.435 395.46 263.348 395.25 263.194 395.095C263.04 394.94 262.831 394.852 262.612 394.85H241.523C241.304 394.85 241.093 394.938 240.937 395.093C240.782 395.248 240.695 395.459 240.695 395.679V426.112C240.693 426.331 240.605 426.541 240.45 426.696C240.295 426.851 240.085 426.939 239.866 426.94H189.942C189.723 426.939 189.513 426.851 189.358 426.696C189.203 426.541 189.115 426.331 189.114 426.112V199.911C189.115 199.692 189.203 199.482 189.358 199.327C189.513 199.172 189.723 199.084 189.942 199.082ZM395.431 384.281C395.431 384.499 395.518 384.708 395.672 384.862C395.827 385.016 396.036 385.103 396.254 385.103H427.09C427.198 385.104 427.306 385.083 427.406 385.042C427.507 385.001 427.598 384.941 427.675 384.864C427.752 384.788 427.813 384.697 427.855 384.597C427.897 384.497 427.918 384.389 427.918 384.281V373.766C427.918 373.546 427.831 373.336 427.675 373.18C427.52 373.025 427.309 372.937 427.09 372.937H396.254C396.035 372.939 395.826 373.027 395.672 373.182C395.518 373.338 395.431 373.547 395.431 373.766V384.281ZM395.431 357.064C395.431 357.173 395.451 357.28 395.492 357.381C395.533 357.481 395.594 357.573 395.67 357.65C395.747 357.727 395.838 357.788 395.938 357.83C396.038 357.872 396.145 357.893 396.254 357.893H427.09C427.199 357.894 427.307 357.873 427.408 357.832C427.509 357.79 427.6 357.729 427.677 357.652C427.754 357.575 427.815 357.483 427.857 357.382C427.898 357.281 427.919 357.173 427.918 357.064V346.538C427.919 346.429 427.898 346.32 427.857 346.219C427.815 346.119 427.754 346.027 427.677 345.95C427.6 345.873 427.509 345.812 427.408 345.77C427.307 345.729 427.199 345.708 427.09 345.709H396.254C396.145 345.709 396.038 345.73 395.938 345.772C395.838 345.814 395.747 345.875 395.67 345.952C395.594 346.029 395.533 346.12 395.492 346.221C395.451 346.321 395.431 346.429 395.431 346.538V357.064ZM395.431 329.854C395.431 330.073 395.518 330.283 395.672 330.438C395.826 330.593 396.035 330.681 396.254 330.683H427.09C427.198 330.683 427.306 330.661 427.407 330.62C427.507 330.578 427.599 330.517 427.675 330.44C427.752 330.363 427.813 330.272 427.855 330.171C427.897 330.071 427.918 329.963 427.918 329.854V319.321C427.918 319.102 427.831 318.891 427.675 318.735C427.52 318.58 427.309 318.493 427.09 318.493H396.254C396.035 318.494 395.826 318.582 395.672 318.738C395.518 318.893 395.431 319.103 395.431 319.321V329.854ZM395.431 302.638C395.431 302.747 395.451 302.854 395.492 302.955C395.533 303.055 395.594 303.147 395.67 303.224C395.747 303.301 395.838 303.362 395.938 303.403C396.038 303.445 396.145 303.467 396.254 303.467H427.09C427.199 303.467 427.307 303.447 427.408 303.405C427.509 303.364 427.6 303.303 427.677 303.226C427.754 303.149 427.815 303.057 427.857 302.956C427.898 302.855 427.919 302.747 427.918 302.638V292.13C427.919 292.021 427.898 291.912 427.857 291.812C427.815 291.711 427.754 291.619 427.677 291.542C427.6 291.465 427.509 291.404 427.408 291.362C427.307 291.321 427.199 291.3 427.09 291.301H396.254C396.145 291.301 396.038 291.322 395.938 291.364C395.838 291.406 395.747 291.467 395.67 291.544C395.594 291.621 395.533 291.712 395.492 291.813C395.451 291.913 395.431 292.021 395.431 292.13V302.638ZM395.431 275.428C395.431 275.647 395.518 275.856 395.672 276.012C395.826 276.167 396.035 276.255 396.254 276.257H427.09C427.309 276.257 427.52 276.169 427.675 276.014C427.831 275.858 427.918 275.648 427.918 275.428V264.895C427.918 264.786 427.897 264.679 427.855 264.579C427.813 264.479 427.752 264.388 427.675 264.311C427.598 264.235 427.507 264.174 427.406 264.133C427.306 264.092 427.198 264.072 427.09 264.072H396.254C396.036 264.072 395.827 264.159 395.672 264.313C395.518 264.468 395.431 264.677 395.431 264.895V275.428ZM395.431 248.218C395.431 248.436 395.518 248.645 395.672 248.799C395.827 248.954 396.036 249.04 396.254 249.04H427.09C427.198 249.041 427.306 249.02 427.406 248.979C427.507 248.938 427.598 248.878 427.675 248.802C427.752 248.725 427.813 248.634 427.855 248.534C427.897 248.434 427.918 248.326 427.918 248.218V237.685C427.918 237.465 427.831 237.254 427.675 237.099C427.52 236.944 427.309 236.856 427.09 236.856H396.254C396.035 236.858 395.826 236.946 395.672 237.101C395.518 237.256 395.431 237.466 395.431 237.685V248.218ZM395.431 221.002C395.431 221.11 395.451 221.218 395.492 221.318C395.533 221.419 395.594 221.51 395.67 221.587C395.747 221.664 395.838 221.725 395.938 221.767C396.038 221.809 396.145 221.83 396.254 221.83H427.09C427.199 221.831 427.307 221.81 427.408 221.769C427.509 221.727 427.6 221.666 427.677 221.589C427.754 221.512 427.815 221.421 427.857 221.32C427.898 221.219 427.919 221.111 427.918 221.002V210.493C427.919 210.384 427.898 210.276 427.857 210.175C427.815 210.074 427.754 209.983 427.677 209.905C427.6 209.828 427.509 209.767 427.408 209.726C427.307 209.685 427.199 209.664 427.09 209.665H396.254C396.145 209.665 396.038 209.686 395.938 209.728C395.838 209.769 395.747 209.831 395.67 209.908C395.594 209.985 395.533 210.076 395.492 210.177C395.451 210.277 395.431 210.385 395.431 210.493V221.002ZM322.326 384.274C322.326 384.383 322.347 384.49 322.389 384.591C322.431 384.691 322.492 384.782 322.569 384.858C322.646 384.935 322.737 384.995 322.838 385.036C322.938 385.077 323.046 385.098 323.154 385.097H353.99C354.209 385.097 354.418 385.01 354.574 384.856C354.729 384.702 354.817 384.493 354.819 384.274V373.766C354.817 373.547 354.729 373.337 354.574 373.182C354.419 373.027 354.209 372.939 353.99 372.937H323.154C322.935 372.937 322.724 373.025 322.568 373.18C322.413 373.336 322.326 373.546 322.326 373.766V384.274ZM322.326 357.058C322.325 357.167 322.346 357.275 322.387 357.376C322.428 357.477 322.489 357.569 322.567 357.646C322.644 357.723 322.735 357.784 322.836 357.825C322.937 357.867 323.045 357.888 323.154 357.887H353.99C354.099 357.887 354.206 357.865 354.307 357.824C354.408 357.782 354.499 357.721 354.576 357.644C354.653 357.567 354.714 357.476 354.755 357.375C354.797 357.275 354.819 357.167 354.819 357.058V346.538C354.819 346.429 354.797 346.321 354.755 346.22C354.714 346.12 354.653 346.029 354.576 345.952C354.499 345.875 354.408 345.814 354.307 345.772C354.206 345.73 354.099 345.709 353.99 345.709H323.154C323.045 345.708 322.937 345.729 322.836 345.77C322.735 345.812 322.644 345.873 322.567 345.95C322.489 346.027 322.428 346.119 322.387 346.219C322.346 346.32 322.325 346.429 322.326 346.538V357.058ZM322.326 329.848C322.326 330.068 322.413 330.279 322.568 330.434C322.724 330.589 322.935 330.677 323.154 330.677H353.99C354.209 330.675 354.419 330.587 354.574 330.432C354.729 330.277 354.817 330.067 354.819 329.848V319.321C354.817 319.102 354.729 318.892 354.574 318.737C354.419 318.582 354.209 318.494 353.99 318.493H323.154C322.935 318.493 322.724 318.58 322.568 318.735C322.413 318.891 322.326 319.102 322.326 319.321V329.848ZM322.326 302.632C322.325 302.741 322.346 302.849 322.387 302.95C322.428 303.051 322.489 303.143 322.567 303.22C322.644 303.297 322.735 303.358 322.836 303.399C322.937 303.44 323.045 303.461 323.154 303.461H353.99C354.099 303.461 354.206 303.439 354.307 303.397C354.408 303.356 354.499 303.295 354.576 303.218C354.653 303.141 354.714 303.05 354.755 302.949C354.797 302.848 354.819 302.741 354.819 302.632V292.13C354.819 292.021 354.797 291.913 354.755 291.813C354.714 291.712 354.653 291.621 354.576 291.544C354.499 291.467 354.408 291.406 354.307 291.364C354.206 291.322 354.099 291.301 353.99 291.301H323.154C323.045 291.3 322.937 291.321 322.836 291.362C322.735 291.404 322.644 291.465 322.567 291.542C322.489 291.619 322.428 291.711 322.387 291.812C322.346 291.912 322.325 292.021 322.326 292.13V302.632ZM322.326 275.422C322.326 275.642 322.413 275.852 322.568 276.008C322.724 276.163 322.935 276.25 323.154 276.25H353.99C354.209 276.249 354.419 276.161 354.574 276.006C354.729 275.851 354.817 275.641 354.819 275.422V264.895C354.817 264.676 354.729 264.467 354.574 264.313C354.418 264.159 354.209 264.072 353.99 264.072H323.154C323.046 264.072 322.938 264.092 322.838 264.133C322.737 264.174 322.646 264.235 322.569 264.311C322.492 264.388 322.431 264.479 322.389 264.579C322.347 264.679 322.326 264.786 322.326 264.895V275.422ZM322.326 248.212C322.326 248.32 322.347 248.428 322.389 248.528C322.431 248.628 322.492 248.719 322.569 248.795C322.646 248.872 322.737 248.932 322.838 248.973C322.938 249.014 323.046 249.035 323.154 249.034H353.99C354.209 249.034 354.418 248.948 354.574 248.794C354.729 248.64 354.817 248.43 354.819 248.212V237.685C354.817 237.466 354.729 237.256 354.574 237.101C354.419 236.946 354.209 236.858 353.99 236.856H323.154C322.935 236.856 322.724 236.944 322.568 237.099C322.413 237.254 322.326 237.465 322.326 237.685V248.212ZM322.326 220.995C322.325 221.104 322.346 221.213 322.387 221.313C322.428 221.414 322.489 221.506 322.567 221.583C322.644 221.66 322.735 221.721 322.836 221.763C322.937 221.804 323.045 221.825 323.154 221.824H353.99C354.099 221.824 354.206 221.803 354.307 221.761C354.408 221.719 354.499 221.658 354.576 221.581C354.653 221.504 354.714 221.413 354.755 221.313C354.797 221.212 354.819 221.104 354.819 220.995V210.493C354.819 210.384 354.797 210.277 354.755 210.176C354.714 210.076 354.653 209.984 354.576 209.907C354.499 209.83 354.408 209.769 354.307 209.728C354.206 209.686 354.099 209.665 353.99 209.665H323.154C323.045 209.664 322.937 209.685 322.836 209.726C322.735 209.767 322.644 209.828 322.567 209.905C322.489 209.983 322.428 210.074 322.387 210.175C322.346 210.276 322.325 210.384 322.326 210.493V220.995ZM272.371 384.268C272.371 384.377 272.393 384.484 272.434 384.585C272.476 384.685 272.537 384.776 272.614 384.852C272.691 384.929 272.783 384.989 272.883 385.03C272.984 385.071 273.091 385.092 273.2 385.091H304.035C304.254 385.091 304.464 385.004 304.619 384.85C304.774 384.696 304.862 384.487 304.864 384.268V373.766C304.862 373.547 304.775 373.337 304.62 373.182C304.465 373.027 304.255 372.939 304.035 372.937H273.2C272.98 372.937 272.769 373.025 272.614 373.18C272.459 373.336 272.371 373.546 272.371 373.766V384.268ZM272.371 357.052C272.37 357.161 272.391 357.269 272.433 357.37C272.474 357.471 272.535 357.563 272.612 357.64C272.689 357.717 272.781 357.778 272.882 357.819C272.983 357.861 273.091 357.882 273.2 357.881H304.035C304.144 357.881 304.252 357.859 304.353 357.818C304.453 357.776 304.544 357.715 304.621 357.638C304.698 357.561 304.759 357.47 304.801 357.369C304.843 357.269 304.864 357.161 304.864 357.052V346.538C304.864 346.429 304.843 346.321 304.801 346.22C304.759 346.12 304.698 346.029 304.621 345.952C304.544 345.875 304.453 345.814 304.353 345.772C304.252 345.73 304.144 345.709 304.035 345.709H273.2C273.091 345.708 272.983 345.729 272.882 345.77C272.781 345.812 272.689 345.873 272.612 345.95C272.535 346.027 272.474 346.119 272.433 346.219C272.391 346.32 272.37 346.429 272.371 346.538V357.052ZM272.371 329.842C272.371 330.062 272.459 330.273 272.614 330.428C272.769 330.583 272.98 330.671 273.2 330.671H304.035C304.255 330.669 304.465 330.581 304.62 330.426C304.775 330.271 304.862 330.061 304.864 329.842V319.321C304.862 319.102 304.775 318.892 304.62 318.737C304.465 318.582 304.255 318.494 304.035 318.493H273.2C272.98 318.493 272.769 318.58 272.614 318.735C272.459 318.891 272.371 319.102 272.371 319.321V329.842ZM272.371 302.626C272.37 302.735 272.391 302.843 272.433 302.944C272.474 303.045 272.535 303.136 272.612 303.213C272.689 303.291 272.781 303.352 272.882 303.393C272.983 303.434 273.091 303.455 273.2 303.454H304.035C304.144 303.454 304.252 303.433 304.353 303.391C304.453 303.35 304.544 303.289 304.621 303.212C304.698 303.135 304.759 303.043 304.801 302.943C304.843 302.842 304.864 302.735 304.864 302.626V292.13C304.864 292.021 304.843 291.913 304.801 291.813C304.759 291.712 304.698 291.621 304.621 291.544C304.544 291.467 304.453 291.406 304.353 291.364C304.252 291.322 304.144 291.301 304.035 291.301H273.2C273.091 291.3 272.983 291.321 272.882 291.362C272.781 291.404 272.689 291.465 272.612 291.542C272.535 291.619 272.474 291.711 272.433 291.812C272.391 291.912 272.37 292.021 272.371 292.13V302.626ZM272.371 275.416C272.371 275.635 272.459 275.846 272.614 276.002C272.769 276.157 272.98 276.244 273.2 276.244H304.035C304.255 276.243 304.465 276.155 304.62 276C304.775 275.845 304.862 275.635 304.864 275.416V264.895C304.862 264.676 304.774 264.467 304.619 264.313C304.464 264.159 304.254 264.072 304.035 264.072H273.2C273.091 264.072 272.984 264.092 272.883 264.133C272.783 264.174 272.691 264.235 272.614 264.311C272.537 264.388 272.476 264.479 272.434 264.579C272.393 264.679 272.371 264.786 272.371 264.895V275.416ZM272.371 248.206C272.371 248.314 272.393 248.422 272.434 248.522C272.476 248.622 272.537 248.713 272.614 248.789C272.691 248.866 272.783 248.926 272.883 248.967C272.984 249.008 273.091 249.029 273.2 249.028H304.035C304.254 249.028 304.464 248.942 304.619 248.787C304.774 248.633 304.862 248.424 304.864 248.206V237.685C304.862 237.466 304.775 237.256 304.62 237.101C304.465 236.946 304.255 236.858 304.035 236.856H273.2C272.98 236.856 272.769 236.944 272.614 237.099C272.459 237.254 272.371 237.465 272.371 237.685V248.206ZM272.371 220.989C272.37 221.098 272.391 221.206 272.433 221.307C272.474 221.408 272.535 221.5 272.612 221.577C272.689 221.654 272.781 221.715 272.882 221.757C272.983 221.798 273.091 221.819 273.2 221.818H304.035C304.144 221.818 304.252 221.796 304.353 221.755C304.453 221.713 304.544 221.652 304.621 221.575C304.698 221.498 304.759 221.407 304.801 221.306C304.843 221.206 304.864 221.098 304.864 220.989V210.493C304.864 210.384 304.843 210.277 304.801 210.176C304.759 210.076 304.698 209.984 304.621 209.907C304.544 209.83 304.453 209.769 304.353 209.728C304.252 209.686 304.144 209.665 304.035 209.665H273.2C273.091 209.664 272.983 209.685 272.882 209.726C272.781 209.767 272.689 209.828 272.612 209.905C272.535 209.983 272.474 210.074 272.433 210.175C272.391 210.276 272.37 210.384 272.371 210.493V220.989ZM199.265 384.262C199.267 384.481 199.355 384.69 199.51 384.844C199.666 384.998 199.875 385.085 200.094 385.085H230.93C231.038 385.085 231.146 385.065 231.246 385.024C231.347 384.983 231.438 384.922 231.515 384.846C231.592 384.77 231.653 384.679 231.695 384.578C231.737 384.478 231.758 384.371 231.758 384.262V373.766C231.758 373.546 231.671 373.336 231.516 373.18C231.36 373.025 231.149 372.937 230.93 372.937H200.088C199.869 372.939 199.659 373.027 199.504 373.182C199.349 373.337 199.261 373.547 199.259 373.766L199.265 384.262ZM199.265 357.046C199.265 357.266 199.353 357.476 199.508 357.632C199.664 357.787 199.874 357.875 200.094 357.875H230.93C231.039 357.875 231.147 357.855 231.248 357.813C231.349 357.772 231.44 357.711 231.517 357.634C231.595 357.557 231.656 357.465 231.697 357.364C231.738 357.263 231.759 357.155 231.758 357.046V346.538C231.759 346.429 231.738 346.32 231.697 346.219C231.656 346.119 231.595 346.027 231.517 345.95C231.44 345.873 231.349 345.812 231.248 345.77C231.147 345.729 231.039 345.708 230.93 345.709H200.088C199.868 345.709 199.657 345.796 199.502 345.952C199.347 346.107 199.259 346.318 199.259 346.538L199.265 357.046ZM199.265 329.836C199.267 330.055 199.355 330.265 199.51 330.42C199.665 330.575 199.875 330.663 200.094 330.664H230.93C231.149 330.664 231.36 330.577 231.516 330.422C231.671 330.266 231.758 330.056 231.758 329.836V319.321C231.758 319.102 231.671 318.891 231.516 318.735C231.36 318.58 231.149 318.493 230.93 318.493H200.088C199.869 318.494 199.659 318.582 199.504 318.737C199.349 318.892 199.261 319.102 199.259 319.321L199.265 329.836ZM199.265 302.62C199.265 302.839 199.353 303.05 199.508 303.206C199.664 303.361 199.874 303.448 200.094 303.448H230.93C231.039 303.449 231.147 303.428 231.248 303.387C231.349 303.345 231.44 303.284 231.517 303.207C231.595 303.13 231.656 303.039 231.697 302.938C231.738 302.837 231.759 302.729 231.758 302.62V292.13C231.759 292.021 231.738 291.912 231.697 291.812C231.656 291.711 231.595 291.619 231.517 291.542C231.44 291.465 231.349 291.404 231.248 291.362C231.147 291.321 231.039 291.3 230.93 291.301H200.088C199.868 291.301 199.657 291.388 199.502 291.544C199.347 291.699 199.259 291.91 199.259 292.13L199.265 302.62ZM199.265 275.409C199.267 275.629 199.355 275.839 199.51 275.994C199.665 276.149 199.875 276.237 200.094 276.238H230.93C231.149 276.238 231.36 276.151 231.516 275.995C231.671 275.84 231.758 275.629 231.758 275.409V264.895C231.758 264.786 231.737 264.679 231.695 264.579C231.653 264.479 231.592 264.388 231.515 264.311C231.438 264.235 231.347 264.174 231.246 264.133C231.146 264.092 231.038 264.072 230.93 264.072H200.088C199.869 264.072 199.659 264.159 199.504 264.313C199.349 264.467 199.261 264.676 199.259 264.895L199.265 275.409ZM199.265 248.199C199.264 248.309 199.284 248.417 199.324 248.519C199.365 248.62 199.425 248.713 199.502 248.791C199.578 248.869 199.669 248.932 199.77 248.974C199.87 249.017 199.979 249.039 200.088 249.04H230.93C231.038 249.041 231.146 249.02 231.246 248.979C231.347 248.938 231.438 248.878 231.515 248.802C231.592 248.725 231.653 248.634 231.695 248.534C231.737 248.434 231.758 248.326 231.758 248.218V237.685C231.758 237.465 231.671 237.254 231.516 237.099C231.36 236.944 231.149 236.856 230.93 236.856H200.088C199.869 236.858 199.659 236.946 199.504 237.101C199.349 237.256 199.261 237.466 199.259 237.685L199.265 248.199ZM199.265 220.983C199.265 221.203 199.353 221.414 199.508 221.569C199.664 221.724 199.874 221.812 200.094 221.812H230.93C231.039 221.813 231.147 221.792 231.248 221.75C231.349 221.709 231.44 221.648 231.517 221.571C231.595 221.494 231.656 221.402 231.697 221.301C231.738 221.2 231.759 221.092 231.758 220.983V210.493C231.759 210.384 231.738 210.276 231.697 210.175C231.656 210.074 231.595 209.983 231.517 209.905C231.44 209.828 231.349 209.767 231.248 209.726C231.147 209.685 231.039 209.664 230.93 209.665H200.088C199.868 209.665 199.657 209.752 199.502 209.907C199.347 210.063 199.259 210.273 199.259 210.493L199.265 220.983Z" fill="white"/>
<path opacity="0.1" d="M414.293 137.775C417.758 137.115 421.342 137.504 424.585 138.892C426.54 139.764 428.657 140.211 430.797 140.206C432.937 140.201 435.052 139.743 437.002 138.862C439.301 137.854 441.791 137.358 444.301 137.407C446.81 137.457 449.279 138.052 451.536 139.15C452.827 139.83 454.263 140.188 455.722 140.194C461.614 140.194 466.518 134.258 467.537 126.426C466.359 125.568 465.359 124.49 464.591 123.253C461.135 117.685 455.783 114.107 449.774 114.107C443.766 114.107 438.481 117.642 435.044 123.148C434.013 124.812 432.571 126.181 430.856 127.123C429.14 128.065 427.211 128.548 425.254 128.525H425.101C420.363 128.525 416.3 132.288 414.293 137.775Z" fill="#70DDFF"/>
<path opacity="0.1" d="M396.371 113.192L405.896 119.232L400.115 108.718C401.753 107.41 403.781 106.686 405.878 106.661H406.031C406.693 106.671 407.354 106.622 408.008 106.514L411.224 108.564L409.837 106.048C412.125 105.248 414.102 103.744 415.483 101.751L421.265 105.434L417.625 98.7801C421.007 94.7228 425.561 92.2369 430.57 92.2369C436.578 92.2369 441.93 95.8093 445.386 101.377C446.409 103.047 447.858 104.416 449.583 105.345C451.308 106.273 453.248 106.728 455.206 106.661H455.532C462.166 106.661 467.543 114.181 467.543 123.461C467.543 132.742 462.166 140.261 455.532 140.261C454.072 140.257 452.635 139.897 451.346 139.212C449.088 138.114 446.619 137.521 444.11 137.472C441.6 137.423 439.11 137.92 436.812 138.929C434.867 139.797 432.761 140.246 430.631 140.246C428.501 140.246 426.395 139.797 424.45 138.929C422.169 137.937 419.701 137.449 417.215 137.496C414.728 137.544 412.28 138.127 410.039 139.206C408.762 139.874 407.343 140.225 405.902 140.231C399.268 140.231 393.891 132.705 393.891 123.431C393.849 119.864 394.701 116.344 396.371 113.192Z" fill="#70DDFF"/>
<path opacity="0.1" d="M131.346 249.777C133.772 249.317 136.28 249.589 138.552 250.556C139.913 251.165 141.387 251.48 142.879 251.48C144.37 251.48 145.844 251.165 147.206 250.556C148.815 249.851 150.559 249.503 152.316 249.538C154.073 249.573 155.802 249.99 157.382 250.759C158.284 251.236 159.289 251.486 160.31 251.489C164.434 251.489 167.865 247.334 168.577 241.853C167.755 241.25 167.055 240.496 166.515 239.631C164.097 235.733 160.377 233.229 156.148 233.229C151.92 233.229 148.237 235.684 145.819 239.557C145.098 240.721 144.089 241.68 142.889 242.339C141.688 242.998 140.338 243.336 138.969 243.32H138.859C135.606 243.307 132.764 245.941 131.346 249.777Z" fill="#70DDFF"/>
<path opacity="0.1" d="M118.813 232.59L125.479 236.819L121.434 229.454C122.581 228.54 124 228.034 125.466 228.017H125.571C126.033 228.023 126.495 227.988 126.952 227.913L129.216 229.343L128.247 227.588C129.846 227.026 131.228 225.976 132.199 224.586L136.256 227.14L133.703 222.493C136.066 219.651 139.227 217.908 142.762 217.908C146.966 217.908 150.741 220.412 153.135 224.31C153.851 225.474 154.863 226.428 156.067 227.075C157.271 227.722 158.625 228.038 159.991 227.993H160.193C164.833 227.993 168.602 233.253 168.602 239.747C168.602 246.241 164.833 251.508 160.193 251.508C159.173 251.505 158.168 251.254 157.265 250.777C155.685 250.008 153.956 249.591 152.199 249.557C150.442 249.524 148.698 249.873 147.089 250.581C145.727 251.186 144.253 251.499 142.762 251.499C141.271 251.499 139.797 251.186 138.435 250.581C136.839 249.888 135.112 249.547 133.372 249.58C131.632 249.614 129.919 250.023 128.351 250.777C127.455 251.241 126.462 251.485 125.454 251.489C120.808 251.489 117.045 246.229 117.045 239.729C117.031 237.239 117.638 234.785 118.813 232.59Z" fill="#70DDFF"/>
<path opacity="0.1" d="M495.543 210.493C493.117 210.034 490.609 210.305 488.337 211.273C486.977 211.882 485.504 212.197 484.013 212.197C482.523 212.197 481.05 211.882 479.689 211.273C478.08 210.567 476.336 210.22 474.579 210.255C472.822 210.29 471.093 210.706 469.513 211.475C468.61 211.951 467.606 212.202 466.586 212.206C462.461 212.206 459.024 208.05 458.312 202.569C459.136 201.968 459.836 201.213 460.374 200.347C462.78 196.437 466.543 193.92 470.759 193.92C474.976 193.92 478.664 196.376 481.083 200.249C481.805 201.415 482.817 202.375 484.019 203.036C485.221 203.697 486.573 204.037 487.945 204.024H488.049C491.314 204.024 494.162 206.657 495.543 210.493Z" fill="#70DDFF"/>
<path opacity="0.1" d="M508.113 193.307L501.447 197.517L505.498 190.152C504.351 189.238 502.932 188.733 501.466 188.715H501.355C500.893 188.721 500.431 188.686 499.974 188.611L497.716 190.041L498.685 188.286C497.084 187.724 495.7 186.674 494.727 185.284L490.682 187.85L493.241 183.203C490.872 180.361 487.687 178.618 484.176 178.618C479.972 178.618 476.197 181.122 473.803 185.02C473.088 186.185 472.076 187.139 470.872 187.786C469.668 188.433 468.314 188.749 466.948 188.703H466.727C462.08 188.703 458.318 193.963 458.318 200.457C458.318 206.951 462.08 212.218 466.727 212.218C467.747 212.213 468.751 211.963 469.654 211.488C471.235 210.718 472.963 210.301 474.721 210.268C476.478 210.234 478.222 210.583 479.831 211.291C481.192 211.896 482.665 212.209 484.155 212.209C485.644 212.209 487.117 211.896 488.479 211.291C490.076 210.598 491.804 210.257 493.545 210.29C495.286 210.324 497 210.733 498.569 211.488C499.464 211.952 500.457 212.196 501.466 212.2C506.106 212.2 509.874 206.939 509.874 200.439C509.89 197.952 509.284 195.5 508.113 193.307Z" fill="#70DDFF"/>
<path d="M507.782 429.702C499.471 434.981 487.497 429.641 479.131 434.84C476.97 436.178 475.227 438.148 472.993 439.364C470.311 440.831 467.156 441.095 464.106 441.205C438.561 442.193 412.586 435.067 387.68 440.825C380.713 442.433 373.901 445.048 366.762 445.428C354.432 446.097 342.617 440.082 330.274 439.75C311.554 439.247 293.16 451.775 275.096 446.834C269.155 445.207 263.705 441.739 257.573 441.156C250.742 440.542 244.175 443.519 237.534 445.256C213.984 451.394 189.458 441.451 165.109 440.708C149.231 440.223 133.507 443.685 117.641 444.483C106.36 445.048 95.0541 444.256 83.7853 443.47C79.489 443.169 74.9901 442.801 71.3934 440.444C67.7967 438.087 65.5871 433.023 67.809 429.34L507.782 429.702Z" fill="#3F3D56"/>
<path opacity="0.1" d="M507.782 429.702C499.471 434.981 487.497 429.641 479.131 434.84C476.97 436.178 475.227 438.148 472.993 439.364C470.311 440.831 467.156 441.095 464.106 441.205C438.561 442.193 412.586 435.067 387.68 440.825C380.713 442.433 373.901 445.048 366.762 445.428C354.432 446.097 342.617 440.082 330.274 439.75C311.554 439.247 293.16 451.775 275.096 446.834C269.155 445.207 263.705 441.739 257.573 441.156C250.742 440.542 244.175 443.519 237.534 445.256C213.984 451.394 189.458 441.451 165.109 440.708C149.231 440.223 133.507 443.685 117.641 444.483C106.36 445.048 95.0541 444.256 83.7853 443.47C79.489 443.169 74.9901 442.801 71.3934 440.444C67.7967 438.087 65.5871 433.023 67.809 429.34L507.782 429.702Z" fill="black"/>
<path d="M507.782 426.633C499.471 431.912 487.497 426.572 479.131 431.771C476.97 433.109 475.227 435.079 472.993 436.295C470.311 437.762 467.156 438.026 464.106 438.136C438.561 439.124 412.586 431.998 387.68 437.756C380.713 439.364 373.901 441.979 366.762 442.359C354.432 443.028 342.617 437.013 330.274 436.681C311.554 436.178 293.16 448.706 275.096 443.765C269.155 442.138 263.705 438.67 257.573 438.087C250.742 437.473 244.175 440.45 237.534 442.187C213.984 448.325 189.458 438.382 165.109 437.639C149.231 437.154 133.507 440.616 117.641 441.414C106.36 441.979 95.0541 441.187 83.7853 440.401C79.489 440.1 74.9901 439.732 71.3934 437.375C67.7967 435.018 65.5871 429.954 67.809 426.271L507.782 426.633Z" fill="#3F3D56"/>
<g opacity="0.1">
<path opacity="0.1" d="M566.906 351.012C566.88 353.676 567.565 356.299 568.888 358.611C567.588 360.933 566.906 363.549 566.906 366.21C566.906 368.871 567.588 371.487 568.888 373.809C568.216 374.959 567.712 376.199 567.391 377.492C574.09 368.66 580.257 359.437 585.859 349.871C585.724 347.589 585.06 345.37 583.919 343.389C585.243 341.077 585.927 338.454 585.902 335.79C585.91 333.99 585.606 332.202 585.006 330.505C584.72 329.7 584.356 328.925 583.919 328.191C582.188 325.251 579.463 323.354 576.407 323.354C573.35 323.354 570.619 325.251 568.888 328.191C568.467 328.904 568.112 329.654 567.826 330.431C567.211 332.15 566.899 333.964 566.906 335.79C566.88 338.454 567.565 341.077 568.888 343.389C567.56 345.708 566.876 348.34 566.906 351.012Z" fill="#3F3D56"/>
<path opacity="0.1" d="M576.407 333.058C571.163 333.058 566.912 327.491 566.912 320.623C566.912 313.754 571.163 308.187 576.407 308.187C581.651 308.187 585.902 313.754 585.902 320.623C585.902 327.491 581.651 333.058 576.407 333.058Z" fill="#3F3D56"/>
<path opacity="0.1" d="M576.407 317.86C571.163 317.86 566.912 312.293 566.912 305.425C566.912 298.557 571.163 292.989 576.407 292.989C581.651 292.989 585.902 298.557 585.902 305.425C585.902 312.293 581.651 317.86 576.407 317.86Z" fill="#3F3D56"/>
<path opacity="0.1" d="M531.111 229.521C531.095 239.728 534.527 249.641 540.851 257.652C536.035 263.776 532.872 271.034 531.665 278.731C530.458 286.428 531.248 294.306 533.958 301.611C536.669 308.915 541.209 315.401 547.145 320.448C553.08 325.494 560.212 328.932 567.857 330.431C568.949 330.652 570.06 330.824 571.184 330.959C574.648 331.374 578.149 331.392 581.618 331.014C582.771 330.892 583.911 330.722 585.036 330.505C589.998 329.588 594.77 327.843 599.153 325.343C607.322 308.653 614.457 291.477 620.518 273.912C618.924 268.005 616.149 262.482 612.361 257.677C617.043 251.728 620.169 244.706 621.455 237.246C622.741 229.786 622.147 222.122 619.726 214.949L585.184 226.544L617.578 209.714C616.152 206.77 614.413 203.987 612.392 201.415C616.255 196.505 619.066 190.851 620.649 184.807C622.232 178.763 622.554 172.458 621.593 166.284C620.633 160.11 618.412 154.2 615.068 148.923C611.723 143.645 607.328 139.113 602.156 135.608C596.984 132.103 591.145 129.702 585.004 128.552C578.863 127.403 572.551 127.531 566.462 128.928C560.372 130.325 554.636 132.962 549.61 136.673C544.584 140.384 540.376 145.091 537.248 150.5L570.643 175.052L534.431 156.269C532.116 162.021 530.999 168.185 531.149 174.384C531.299 180.582 532.712 186.685 535.303 192.318L562.309 192.116L537.353 196.216C538.412 198.03 539.595 199.77 540.894 201.421C534.562 209.419 531.115 219.32 531.111 229.521Z" fill="#70DDFF"/>
<path opacity="0.1" d="M531.111 285.807C531.112 296.351 534.774 306.566 541.471 314.709C548.167 322.853 557.483 328.418 567.826 330.456C568.919 330.677 570.03 330.849 571.153 330.984C574.618 331.398 578.118 331.417 581.587 331.039C582.741 330.916 583.88 330.746 585.006 330.529C589.967 329.613 594.739 327.867 599.122 325.367C607.303 308.67 614.448 291.486 620.518 273.912C618.924 268.005 616.149 262.482 612.361 257.677C618.688 249.658 622.121 239.736 622.102 229.521C622.102 224.414 534.75 249.912 540.851 257.652C534.522 265.67 531.089 275.592 531.111 285.807Z" fill="black"/>
</g>
<g opacity="0.1">
<path opacity="0.1" d="M19.0881 339.178C20.868 344.862 22.7707 350.503 24.7225 356.015C25.265 354.39 25.5386 352.688 25.5327 350.975C25.5327 345.494 22.8321 340.841 19.0881 339.178Z" fill="#3F3D56"/>
<path opacity="0.1" d="M0 241.239C0 252.011 2.17273 269.032 6.13767 288.502C9.61038 305.601 13.943 322.515 19.1189 339.178C20.8988 344.862 22.8014 350.503 24.7532 356.015C26.9934 362.276 29.3565 368.365 31.8299 374.19C38.5923 371.707 44.6716 367.66 49.5711 362.379C54.4707 357.098 58.0516 350.732 60.0213 343.803C61.9911 336.873 62.2938 329.576 60.9047 322.507C59.5157 315.438 56.4743 308.798 52.029 303.129C56.7121 297.163 59.8374 290.125 61.1231 282.65C62.4089 275.175 61.8147 267.498 59.3942 260.31L24.8514 271.929L57.246 255.062C55.8195 252.112 54.0808 249.324 52.0597 246.745C56.3745 241.243 59.3685 234.824 60.8107 227.982C62.2529 221.14 62.1049 214.058 60.378 207.283C58.6512 200.507 55.3916 194.219 50.8506 188.902C46.3097 183.585 40.6086 179.382 34.1868 176.617C20.244 186.13 9.74875 199.894 4.26565 215.858L10.2499 220.314L3.8299 216.981C1.67644 223.599 0.419327 230.475 0.0920792 237.427H1.89652L0.0552177 237.728C-2.28882e-05 238.888 0 240.054 0 241.239Z" fill="#70DDFF"/>
<path opacity="0.1" d="M6.10693 288.502C9.57964 305.601 13.9122 322.515 19.0881 339.178C20.868 344.862 22.7707 350.503 24.7225 356.015C26.9628 362.276 29.3258 368.365 31.7993 374.19C38.5616 371.707 44.6409 367.66 49.5404 362.379C54.44 357.098 58.0208 350.732 59.9906 343.803C61.9603 336.873 62.263 329.576 60.874 322.507C59.485 315.438 56.4436 308.798 51.9983 303.129C58.318 295.095 61.7472 285.165 61.7326 274.943C61.7326 271.874 29.9886 279.915 6.10693 288.502Z" fill="black"/>
</g>
<path opacity="0.1" d="M0.0797729 237.716C0.0797729 237.623 0.0797729 237.525 0.0797729 237.427C0.407043 230.475 1.66418 223.599 3.81763 216.981C3.94037 216.607 4.06311 216.226 4.19202 215.858C9.67511 199.894 20.1703 186.13 34.1131 176.617C49.7418 165.968 68.7129 161.375 87.4814 163.695C106.25 166.015 123.531 175.09 136.097 189.225C137.412 181.774 139.491 174.478 142.302 167.453C162.781 170.042 183.45 170.813 204.065 169.755C191.432 175.58 178.334 180.337 164.907 183.977L165.386 185.757C180.454 181.665 195.109 176.178 209.159 169.368L213.401 167.312L208.699 167.619C186.797 169.053 164.809 168.422 143.026 165.734C147.739 154.493 154.276 144.107 162.372 134.995C197.7 131.435 232.753 124.02 265.485 109.319L264.73 107.644C232.869 121.964 198.725 129.323 164.256 132.945C175.924 120.437 190.339 110.813 206.365 104.833C222.39 98.8533 239.586 96.6817 256.595 98.4897C273.603 100.298 289.959 106.036 304.369 115.25C318.779 124.465 330.85 136.905 339.628 151.586C342.893 119.924 356.044 90.0946 377.215 66.3281C396.063 73.8594 415.523 79.7553 435.382 83.9505C465.247 90.2986 495.812 92.7313 526.305 91.1873C513.672 97.0127 500.573 101.77 487.147 105.409L487.625 107.189C502.69 103.097 517.34 97.61 531.387 90.8006L535.628 88.7443L530.927 89.0513C478.95 92.4654 426.867 84.2129 378.492 64.8979C380.312 62.9051 382.186 60.9573 384.114 59.0545C444.521 60.2821 510.31 59.6683 569.87 37.9824C591.941 51.6057 610.156 70.6527 622.782 93.3095C635.408 115.966 642.024 141.478 642 167.416C642 195.934 634.162 235.15 620.518 274.495C614.438 292.104 607.283 309.323 599.092 326.055C594.924 334.525 590.499 342.757 585.853 350.638C580.251 360.204 574.084 369.427 567.384 378.259C566.181 379.843 564.964 381.398 563.732 382.924C556.867 391.614 549.162 399.605 540.728 406.783C539.022 408.207 537.306 409.563 535.579 410.852C530.951 414.351 526.021 417.432 520.849 420.059C511.845 424.571 502.552 427.216 493.045 427.597C492.284 427.628 491.517 427.646 490.756 427.646V427.959H78.3044V427.646H77.9975C75.6204 427.637 73.2623 427.222 71.025 426.419C56.442 421.244 43.0128 400.467 31.8483 374.208C29.3932 368.383 27.0118 362.294 24.7716 356.033C22.7953 350.509 20.9172 344.88 19.1373 339.196C13.9614 322.533 9.62878 305.62 6.15607 288.52C2.2218 269.05 0.0184326 252.03 0.0184326 241.257C0 240.054 0 238.888 0.0797729 237.716Z" fill="white"/>
<path d="M436.965 409.895L425.218 402.983C426.808 400.27 428.838 397.841 431.226 395.796L453.389 402.689L436.02 392.481C440.32 390.126 445.159 388.93 450.06 389.013C454.962 389.096 459.758 390.454 463.976 392.953C468.194 395.452 471.688 399.007 474.115 403.267C476.542 407.527 477.818 412.345 477.817 417.248C477.817 432.839 465.18 433.379 449.584 433.379C433.988 433.379 421.351 432.839 421.351 417.248C421.345 413.3 422.171 409.396 423.775 405.788L436.965 409.895Z" fill="#70DDFF"/>
<path opacity="0.1" d="M433.976 425.05C435.226 423.797 436.624 422.701 438.137 421.784C440.273 420.366 442.477 418.918 444.993 418.439C447.203 418.016 449.48 418.372 451.745 418.243C455.652 418.004 459.33 416.319 462.062 413.516C463.664 411.859 464.928 409.833 466.856 408.551C468.936 407.188 471.575 406.893 474.043 407.231C474.759 407.333 475.468 407.479 476.166 407.667C477.275 410.739 477.84 413.982 477.836 417.248C477.836 432.839 465.198 433.379 449.603 433.379C442.035 433.379 435.167 433.25 430.097 431.341L430.944 429.758C431.753 428.067 432.772 426.486 433.976 425.05Z" fill="black"/>
<path d="M306.061 135.971C293.943 135.971 284.119 126.146 284.119 114.027C284.119 101.908 293.943 92.0835 306.061 92.0835C318.179 92.0835 328.003 101.908 328.003 114.027C328.003 126.146 318.179 135.971 306.061 135.971Z" fill="#3F3D56"/>
<path d="M318.79 284.727C316.526 300.619 319.288 316.823 323.59 332.285C324.394 335.164 325.26 338.067 326.763 340.651C328.267 343.235 330.36 345.457 332.128 347.888C335.81 352.958 337.971 358.936 339.99 364.854C345.557 381.227 350.233 397.889 353.996 414.768C354.223 415.46 354.223 416.207 353.996 416.898C353.462 418.126 351.842 418.286 350.51 418.279L333.288 418.187C332.674 417.009 333.809 415.732 334.515 414.603C336.97 410.785 334.613 405.825 332.447 401.829C327.181 392.125 323.105 381.82 320.306 371.139C319.128 366.64 318.171 362.042 316.256 357.801C313.942 352.657 310.314 348.232 307.368 343.419C303.943 337.828 301.445 331.757 298.966 325.662C295.504 317.204 292.012 308.641 290.649 299.606C289.366 291.123 289.999 282.481 290.833 273.942C290.795 273.688 290.817 273.429 290.898 273.185C290.979 272.941 291.117 272.721 291.301 272.541C291.484 272.361 291.708 272.227 291.953 272.151C292.198 272.074 292.458 272.057 292.711 272.101L315.82 270.91C320.583 270.665 321.712 269.621 320.988 274.299C320.484 277.791 319.294 281.192 318.79 284.727Z" fill="#3F3D56"/>
<path opacity="0.1" d="M318.79 284.727C316.526 300.619 319.288 316.823 323.59 332.285C324.394 335.164 325.26 338.067 326.763 340.651C328.267 343.235 330.36 345.457 332.128 347.888C335.81 352.958 337.971 358.936 339.99 364.854C345.557 381.227 350.233 397.889 353.996 414.768C354.223 415.46 354.223 416.207 353.996 416.898C353.462 418.126 351.842 418.286 350.51 418.279L333.288 418.187C332.674 417.009 333.809 415.732 334.515 414.603C336.97 410.785 334.613 405.825 332.447 401.829C327.181 392.125 323.105 381.82 320.306 371.139C319.128 366.64 318.171 362.042 316.256 357.801C313.942 352.657 310.314 348.232 307.368 343.419C303.943 337.828 301.445 331.757 298.966 325.662C295.504 317.204 292.012 308.641 290.649 299.606C289.366 291.123 289.999 282.481 290.833 273.942C290.795 273.688 290.817 273.429 290.898 273.185C290.979 272.941 291.117 272.721 291.301 272.541C291.484 272.361 291.708 272.227 291.953 272.151C292.198 272.074 292.458 272.057 292.711 272.101L315.82 270.91C320.583 270.665 321.712 269.621 320.988 274.299C320.484 277.791 319.294 281.192 318.79 284.727Z" fill="black"/>
<path d="M314.249 246.094C318.944 252.846 323.866 260.617 322.307 268.701C321.123 274.839 316.446 279.596 312.033 284.046C294.393 301.76 277.048 321.439 271.045 345.715C269.499 351.988 268.75 358.427 267.418 364.743C265 376.221 260.667 387.196 256.37 398.104L244.856 427.167C241.285 427.255 237.773 426.242 234.798 424.265C231.822 422.289 229.527 419.445 228.223 416.119C229.733 416.002 231.703 414.541 232.587 413.314C237.497 406.519 238.504 397.778 239.762 389.492C241.155 380.334 243.015 371.249 244.881 362.171L253.13 322.004C254.081 317.369 255.032 312.729 256.272 308.162C261.072 290.472 270.168 273.789 271.573 255.498C271.782 252.809 271.911 249.857 273.734 247.862C275.649 245.756 278.791 245.407 281.633 245.241C293.129 244.504 303.047 243.381 314.249 246.094Z" fill="#3F3D56"/>
<path d="M345.262 414.357C346.514 414.06 347.794 413.895 349.08 413.866C350.313 413.91 351.518 414.24 352.601 414.832C353.683 415.423 354.613 416.259 355.316 417.273C356.033 418.422 356.596 419.66 356.991 420.956L358.655 425.731C359.146 427.131 359.624 428.745 358.894 430.028C358.351 430.825 357.568 431.429 356.66 431.753C352.634 433.545 348.067 433.643 343.709 434.073C339.45 434.49 335.227 435.239 331.023 436.025C329.574 436.301 328.132 436.577 326.665 436.724C323.388 437.056 320.086 436.724 316.808 436.43L313.426 436.104C312.294 436.056 311.174 435.849 310.1 435.491C309.563 435.308 309.068 435.019 308.646 434.64C308.224 434.262 307.883 433.801 307.644 433.287C306.81 431.218 308.602 428.769 310.793 428.34C311.683 428.168 312.634 428.248 313.506 428.131C314.529 427.956 315.526 427.657 316.477 427.241C320.773 425.541 325.174 423.822 328.979 421.146C330.035 420.403 331.139 419.366 331.023 418.077C330.913 417.525 330.729 416.99 330.477 416.487C329.961 415.17 329.943 413.71 330.427 412.381C330.636 411.816 331.041 411.221 331.612 411.153C333.232 410.957 333.036 413.32 333.275 414.222C333.601 415.45 334.19 415.56 335.344 415.45C338.658 415.149 341.972 414.983 345.262 414.357Z" fill="#F2F2F2"/>
<path d="M248.367 430.85C248.337 433.249 247.513 435.569 246.022 437.449C245.567 438.009 244.998 438.467 244.353 438.793C243.382 439.193 242.331 439.359 241.284 439.278C238.362 439.214 235.475 438.63 232.759 437.553C231.802 437.12 230.818 436.748 229.813 436.442C228.548 436.183 227.269 435.999 225.983 435.89C220.907 435.159 216.451 432.164 211.547 430.648C210.082 430.285 208.646 429.813 207.251 429.236C205.311 428.321 203.74 426.781 202.199 425.289C201.291 424.484 200.509 423.546 199.879 422.509C198.977 420.833 198.922 418.826 198.885 416.929C198.852 416.632 198.903 416.333 199.032 416.064C199.172 415.87 199.364 415.719 199.585 415.628C201.076 414.891 202.844 415.259 204.495 415.548C210.461 416.61 216.568 416.413 222.625 416.217C223.2 416.296 223.785 416.183 224.289 415.896C224.793 415.608 225.187 415.162 225.412 414.627L227.714 410.944C228.37 409.889 229.414 408.679 230.604 409.042C231.556 409.33 231.942 410.496 231.906 411.497C231.869 412.497 231.562 413.492 231.752 414.468C231.888 415.005 232.132 415.509 232.47 415.948C232.808 416.387 233.232 416.752 233.716 417.021C234.683 417.547 235.715 417.943 236.785 418.2C240.173 419.157 244.113 420.244 246.734 422.736C248.661 424.503 248.483 428.462 248.367 430.85Z" fill="#F2F2F2"/>
<path d="M249.558 187.328C248.236 186.318 247.102 185.084 246.206 183.682C245.435 182.1 244.951 180.394 244.776 178.643L243.813 172.554C243.279 169.196 242.653 165.642 240.412 163.083C238.172 160.523 233.71 159.608 231.433 162.137C230.439 163.236 230.046 164.746 229.8 166.213C229.1 170.588 229.388 175.063 230.644 179.312C231.899 183.561 234.09 187.474 237.055 190.765C239.811 193.785 243.193 196.185 246.108 199.04C248.649 201.495 250.853 204.312 253.197 206.982C258.867 213.432 265.361 219.107 272.512 223.862C272.426 219.295 271.843 214.397 272.512 209.861C273.01 206.583 274.354 204.815 271.181 202.673C263.815 197.665 256.383 193.135 249.558 187.328Z" fill="#FBBEBE"/>
<path d="M311.45 142.41C311.689 145.675 313.046 149.014 315.746 150.899C308.099 153.575 300.555 156.525 293.117 159.75C294.553 158.369 294.989 156.251 295.056 154.262C295.246 149.063 293.448 143.95 290.821 139.469C290.403 138.901 290.162 138.222 290.128 137.518C290.213 136.069 291.932 135.4 293.344 135.062C298.16 133.894 303.075 133.181 308.025 132.932C310.142 132.865 312.653 132.196 312.174 134.89C311.72 137.407 311.26 139.862 311.45 142.41Z" fill="#FBBEBE"/>
<path d="M296.658 144.159C286.75 144.159 278.718 136.126 278.718 126.217C278.718 116.308 286.75 108.276 296.658 108.276C306.566 108.276 314.598 116.308 314.598 126.217C314.598 136.126 306.566 144.159 296.658 144.159Z" fill="#FBBEBE"/>
<path d="M278.896 174.677C279.522 173.33 280.285 172.051 281.173 170.86C284.426 166.189 287.765 161.524 291.938 157.657C295.1 154.837 298.521 152.323 302.157 150.15C304.119 148.805 306.276 147.77 308.553 147.081C309.904 146.781 311.277 146.594 312.659 146.522L317.317 146.142C317.726 146.087 318.14 146.1 318.545 146.178C319.809 146.498 320.386 148.069 320.116 149.339C319.846 150.61 318.889 151.641 318.042 152.605C317.833 162.113 322.062 171.492 322.633 180.987C323.633 197.591 313.5 213.034 312.69 229.65C312.606 230.401 312.686 231.161 312.923 231.878C313.058 232.222 313.26 232.535 313.414 232.873C313.893 233.916 313.874 235.101 313.96 236.249C314.295 240.342 316.087 244.18 319.011 247.064C318.251 248.007 317.274 248.753 316.164 249.237C314.206 250.09 311.867 250.164 309.786 250.759C304.361 252.343 298.8 253.938 293.16 253.601C292.459 252.076 292.025 250.442 291.877 248.77C291.079 248.273 290.158 249.335 290.035 250.268C289.913 251.201 290.091 252.287 289.422 252.963C288.753 253.638 287.906 253.533 287.089 253.429C283.646 252.993 280.338 251.833 276.962 251.054C273.587 250.274 269.978 249.9 266.694 251.017C266.031 250.176 266.313 248.93 266.854 248.009C267.394 247.088 268.161 246.278 268.468 245.253C268.622 244.663 268.688 244.052 268.664 243.442C268.664 238.194 267.584 232.891 268.609 227.741C268.91 226.231 269.388 224.758 269.695 223.242C270.309 220.302 270.217 217.27 270.137 214.268C270.057 211.267 270.42 208.02 270.481 204.975C270.483 203.717 270.565 202.46 270.726 201.212C270.935 199.905 271.34 198.628 271.451 197.309C271.782 193.957 270.432 190.63 270.634 187.267C270.972 182.16 276.907 179.385 278.896 174.677Z" fill="#6461FF"/>
<path d="M319.386 172.271C323.731 183.799 325.855 196.026 327.979 208.167L332.889 236.684C334.282 244.744 335.681 252.852 335.626 261.028C335.626 263.324 335.479 265.662 336.08 267.878C336.866 270.788 338.818 273.212 340.297 275.858C343.298 281.26 344.298 287.548 343.12 293.615C342.617 296.162 341.242 299.053 338.658 299.348C336.534 299.581 334.699 297.893 333.459 296.15C330.612 292.154 329.2 287.33 327.936 282.579C323.865 267.053 321.019 251.231 319.423 235.26C319.271 233.239 318.986 231.229 318.569 229.245C318.027 227.199 317.334 225.197 316.495 223.254C314.617 218.597 312.737 213.941 310.854 209.284C306.515 198.524 302.151 187.715 296.192 177.759C302.084 176.065 308.215 174.076 314.107 172.4C315.808 171.897 317.63 172.198 319.386 172.271Z" fill="#FBBEBE"/>
<path d="M309.173 181.03C313.297 180.14 317.563 180.417 321.773 180.312C322.371 180.356 322.967 180.2 323.467 179.87C324.321 179.14 323.958 177.771 323.529 176.734L321.491 171.823C321.157 170.808 320.599 169.881 319.858 169.11C318.821 168.189 317.36 167.962 315.986 167.797C311.511 167.281 306.908 167.109 302.569 168.318C298.229 169.528 294.148 172.277 292.208 176.347C291.398 178.041 291.024 180.177 292.098 181.718C293.693 184.007 297.272 186.567 299.942 185.315C303.139 183.799 305.588 181.791 309.173 181.03Z" fill="#7E7CFF"/>
<path d="M287.243 98.3505C290.788 98.3125 294.266 99.3155 297.247 101.235C300.069 98.5611 303.551 96.6847 307.336 95.7982C311.122 94.9116 315.075 95.0468 318.79 96.1898C319.185 93.9268 320.193 91.8156 321.705 90.0866C323.218 88.3576 325.176 87.0772 327.366 86.3852C329.556 85.6932 331.894 85.6161 334.126 86.1624C336.357 86.7087 338.395 87.8574 340.018 89.4831C341.64 91.1087 342.786 93.149 343.328 95.3811C343.871 97.6132 343.79 99.9515 343.094 102.141C342.398 104.33 341.115 106.286 339.383 107.795C337.652 109.305 335.539 110.31 333.275 110.7C334.085 113.466 334.342 116.364 334.032 119.229C333.721 122.094 332.85 124.87 331.467 127.398C330.084 129.926 328.217 132.157 325.972 133.963C323.727 135.77 321.148 137.116 318.382 137.926C315.617 138.735 312.719 138.992 309.854 138.682C306.99 138.372 304.214 137.5 301.686 136.117C299.158 134.734 296.927 132.867 295.121 130.622C293.315 128.376 291.968 125.797 291.159 123.032C289.864 123.297 288.546 123.43 287.224 123.431C278.57 123.431 271.549 117.814 271.549 110.891C271.549 103.967 278.601 98.3505 287.243 98.3505Z" fill="#3F3D56"/>
<path opacity="0.1" d="M284.119 117.158C285.44 117.161 286.759 117.027 288.053 116.759C288.668 119.004 289.637 121.136 290.925 123.075C289.712 123.309 288.479 123.428 287.243 123.431C279.153 123.431 272.512 118.52 271.659 112.235C274.538 115.23 279.049 117.158 284.119 117.158Z" fill="black"/>
<path opacity="0.1" d="M309.197 132.834C312.63 132.829 316.015 132.02 319.079 130.471C322.143 128.922 324.801 126.676 326.84 123.915C328.88 121.153 330.244 117.951 330.823 114.567C331.403 111.183 331.181 107.71 330.176 104.427C333.08 103.916 335.711 102.398 337.607 100.139C339.503 97.8808 340.542 95.0263 340.542 92.0773C340.544 91.3239 340.476 90.5719 340.34 89.8308C341.871 91.4848 342.927 93.5208 343.399 95.7246C343.871 97.9285 343.74 100.219 343.02 102.354C342.3 104.49 341.018 106.392 339.309 107.861C337.599 109.33 335.526 110.311 333.306 110.7C334.996 116.249 334.42 122.241 331.705 127.367C328.989 132.492 324.355 136.334 318.816 138.052C313.276 139.77 307.281 139.225 302.142 136.536C297.003 133.847 293.138 129.232 291.392 123.701C293.421 126.528 296.094 128.832 299.19 130.42C302.287 132.009 305.717 132.836 309.197 132.834Z" fill="black"/>
<path d="M229.155 169.831C229.088 169.737 229.109 169.608 229.201 169.542C229.294 169.476 229.423 169.499 229.49 169.592L231.222 172.021C231.289 172.114 231.269 172.244 231.176 172.31C231.084 172.376 230.955 172.353 230.888 172.259L229.155 169.831Z" fill="#3A3768"/>
<path d="M238.855 159.519C238.818 159.467 238.83 159.394 238.882 159.357C238.935 159.319 239.007 159.332 239.045 159.384L239.558 160.103C239.596 160.156 239.583 160.229 239.531 160.266C239.479 160.304 239.406 160.291 239.368 160.239L238.855 159.519Z" fill="#3A3768"/>
<path d="M240.047 161.214C240.006 161.156 240.019 161.076 240.077 161.034C240.135 160.993 240.216 161.006 240.257 161.064L241.237 162.438C241.279 162.496 241.265 162.577 241.207 162.618C241.149 162.66 241.069 162.646 241.027 162.588L240.047 161.214Z" fill="#3A3768"/>
<path d="M241.57 163.346C241.53 163.29 241.543 163.214 241.598 163.174C241.653 163.135 241.73 163.148 241.769 163.203L242.768 164.602C242.807 164.657 242.794 164.734 242.739 164.773C242.684 164.813 242.607 164.8 242.568 164.745L241.57 163.346Z" fill="#3A3768"/>
<path d="M226.18 164.619L234.894 158.401C235.589 157.905 236.555 158.066 237.051 158.761L251.543 179.072C252.039 179.768 251.877 180.733 251.182 181.23L242.469 187.448C241.774 187.944 240.808 187.782 240.311 187.087L225.82 166.776C225.323 166.081 225.485 165.115 226.18 164.619Z" fill="#3A3768"/>
<path opacity="0.1" d="M226.18 164.619L234.894 158.401C235.589 157.905 236.555 158.066 237.051 158.761L251.543 179.072C252.039 179.768 251.877 180.733 251.182 181.23L242.469 187.448C241.774 187.944 240.808 187.782 240.311 187.087L225.82 166.776C225.323 166.081 225.485 165.115 226.18 164.619Z" fill="black"/>
<path d="M226.749 163.474L235.462 157.256C236.158 156.76 237.123 156.922 237.62 157.617L252.112 177.928C252.608 178.623 252.446 179.589 251.751 180.085L243.038 186.303C242.342 186.799 241.376 186.638 240.88 185.943L226.388 165.632C225.892 164.936 226.054 163.97 226.749 163.474Z" fill="#3A3768"/>
<path d="M227.536 163.844L228.818 162.923L228.929 163.077C229.066 163.265 229.27 163.392 229.499 163.432C229.728 163.472 229.964 163.422 230.156 163.291L234.256 160.363C234.451 160.224 234.582 160.013 234.621 159.778C234.66 159.542 234.604 159.3 234.465 159.105L234.355 158.952L235.582 158.092C235.699 158.008 235.831 157.948 235.971 157.915C236.111 157.882 236.257 157.877 236.399 157.901C236.541 157.924 236.677 157.975 236.799 158.051C236.921 158.127 237.027 158.227 237.11 158.344L251.276 178.201C251.445 178.437 251.513 178.73 251.465 179.017C251.418 179.303 251.26 179.559 251.024 179.729L242.96 185.48C242.842 185.564 242.71 185.624 242.57 185.657C242.429 185.689 242.284 185.693 242.142 185.669C242 185.646 241.864 185.594 241.742 185.517C241.62 185.44 241.514 185.34 241.431 185.223L227.266 165.372C227.182 165.254 227.123 165.121 227.092 164.98C227.06 164.839 227.057 164.694 227.082 164.552C227.107 164.41 227.16 164.274 227.238 164.152C227.316 164.031 227.417 163.926 227.536 163.844Z" fill="#70DDFF"/>
<path d="M231.27 161.285L232.519 160.393C232.607 160.33 232.73 160.351 232.793 160.439C232.856 160.527 232.836 160.65 232.747 160.713L231.498 161.604C231.41 161.667 231.287 161.647 231.224 161.559C231.161 161.47 231.182 161.348 231.27 161.285Z" fill="#E6E8EC"/>
<path d="M230.838 162.094C230.716 162.094 230.617 161.995 230.617 161.873C230.617 161.751 230.716 161.652 230.838 161.652C230.96 161.652 231.059 161.751 231.059 161.873C231.059 161.995 230.96 162.094 230.838 162.094Z" fill="#E6E8EC"/>
<path d="M230.776 8.55035C241.683 8.55035 252.142 12.8832 259.854 20.5956C267.566 28.3081 271.899 38.7684 271.899 49.6755C271.899 72.3864 228.812 147.602 228.812 147.602C228.812 147.602 189.654 72.4171 189.654 49.6755C189.654 38.7684 193.986 28.3081 201.698 20.5956C209.41 12.8832 219.87 8.55035 230.776 8.55035ZM230.776 77.1004C235.037 77.1004 239.202 75.8369 242.745 73.4695C246.288 71.1021 249.049 67.7373 250.68 63.8006C252.31 59.8638 252.737 55.5319 251.906 51.3526C251.074 47.1734 249.023 43.3345 246.01 40.3214C242.997 37.3083 239.158 35.2564 234.979 34.4251C230.8 33.5938 226.469 34.0204 222.532 35.6511C218.596 37.2818 215.231 40.0432 212.864 43.5862C210.497 47.1292 209.233 51.2946 209.233 55.5558C209.23 58.3868 209.785 61.1908 210.866 63.8072C211.947 66.4236 213.534 68.8011 215.535 70.8039C217.536 72.8066 219.912 74.3952 222.527 75.4787C225.142 76.5623 227.945 77.1197 230.776 77.1188V77.1004Z" fill="#70DDFF"/>
<path opacity="0.1" d="M230.776 8.55035C241.683 8.55035 252.142 12.8832 259.854 20.5956C267.566 28.3081 271.899 38.7684 271.899 49.6755C271.899 72.3864 228.812 147.602 228.812 147.602C228.812 147.602 189.654 72.4171 189.654 49.6755C189.654 38.7684 193.986 28.3081 201.698 20.5956C209.41 12.8832 219.87 8.55035 230.776 8.55035ZM230.776 77.1004C235.037 77.1004 239.202 75.8369 242.745 73.4695C246.288 71.1021 249.049 67.7373 250.68 63.8006C252.31 59.8638 252.737 55.5319 251.906 51.3526C251.074 47.1734 249.023 43.3345 246.01 40.3214C242.997 37.3083 239.158 35.2564 234.979 34.4251C230.8 33.5938 226.469 34.0204 222.532 35.6511C218.596 37.2818 215.231 40.0432 212.864 43.5862C210.497 47.1292 209.233 51.2946 209.233 55.5558C209.23 58.3868 209.785 61.1908 210.866 63.8072C211.947 66.4236 213.534 68.8011 215.535 70.8039C217.536 72.8066 219.912 74.3952 222.527 75.4787C225.142 76.5623 227.945 77.1197 230.776 77.1188V77.1004Z" fill="black"/>
<path d="M230.776 0C241.683 0 252.142 4.33281 259.854 12.0453C267.566 19.7577 271.899 30.2181 271.899 41.1251C271.899 63.836 228.812 147.621 228.812 147.621C228.812 147.621 189.654 63.8483 189.654 41.1313C189.653 35.7301 190.716 30.3817 192.782 25.3915C194.849 20.4012 197.878 15.8669 201.696 12.0474C205.515 8.22797 210.048 5.19817 215.038 3.13105C220.028 1.06394 225.376 -6.01598e-08 230.776 0ZM230.776 68.5501C235.037 68.5501 239.202 67.2865 242.745 64.9191C246.288 62.5518 249.049 59.187 250.68 55.2502C252.31 51.3134 252.737 46.9815 251.906 42.8022C251.074 38.623 249.023 34.7841 246.01 31.771C242.997 28.758 239.158 26.706 234.979 25.8747C230.8 25.0434 226.469 25.4701 222.532 27.1007C218.596 28.7314 215.231 31.4928 212.864 35.0358C210.497 38.5788 209.233 42.7443 209.233 47.0054C209.233 49.8347 209.79 52.6363 210.873 55.2502C211.956 57.8641 213.542 60.2392 215.543 62.2398C217.543 64.2404 219.918 65.8273 222.532 66.9101C225.146 67.9928 227.947 68.5501 230.776 68.5501Z" fill="#70DDFF"/>
<circle cx="84.5" cy="103.5" r="4.5" fill="#FECB42"/>
<circle cx="336.5" cy="148.5" r="6.5" fill="#6C63FF"/>
</g>
<defs>
<clipPath id="clip0_0_8">
<rect width="642" height="448" fill="white" transform="matrix(-1 0 0 1 642 0)"/>
</clipPath>
</defs>
</svg>
